PathFileType	4	(X/Y/Z)	/Users/visionmauri/Downloads/pro-gait-dataset/4_0_1_f_1_Sports2D/4_0_1_f_1_Sports2D_px_person00.trc
DataRate	CameraRate	NumFrames	NumMarkers	Units	OrigDataRate	OrigDataStartFrame	OrigNumFrames
30.0	30.0	5	22	m	30.0	245	654
Frame#	Time	Hip			RHip			RKnee			RAnkle			RBigToe			RSmallToe			RHeel			LHip			LKnee			LAnkle			LBigToe			LSmallToe			LHeel			Neck			Head			Nose			RShoulder			RElbow			RWrist			LShoulder			LElbow			LWrist			
		X1	Y1	Z1	X2	Y2	Z2	X3	Y3	Z3	X4	Y4	Z4	X5	Y5	Z5	X6	Y6	Z6	X7	Y7	Z7	X8	Y8	Z8	X9	Y9	Z9	X10	Y10	Z10	X11	Y11	Z11	X12	Y12	Z12	X13	Y13	Z13	X14	Y14	Z14	X15	Y15	Z15	X16	Y16	Z16	X17	Y17	Z17	X18	Y18	Z18	X19	Y19	Z19	X20	Y20	Z20	X21	Y21	Z21	X22	Y22	Z22
245	8.179173047473201	497.0365241972986	852.0826705846379	0.0	509.12767129499656	848.5510132207681	0.0	519.2442849828681	896.3138835081501	0.0	516.3705564594219	943.1211587702976	0.0	520.565981421614	960.1951932415966	0.0	523.7903568914315	960.343672044853	0.0	513.1115077044105	951.452392374559	0.0	485.72908048542416	851.4369497245764	0.0	488.22858191819563	904.416545383929	0.0	490.33675426398116	949.6131993183163	0.0	484.68318160319075	953.9173276836974	0.0	480.4285293559685	956.7196332832622	0.0	491.4474047098993	958.3789672210216	0.0	490.88371914438045	785.6825656020605	0.0	488.8134941365075	759.0156383269903	0.0	488.9848504081834	771.7641525008354	0.0	509.75259561925014	790.7681552573027	0.0	530.004810080128	819.3409984944074	0.0	538.3487799595682	846.4704669138507	0.0	473.5227597717761	796.203814212167	0.0	460.95513582200033	829.1739554953203	0.0	461.3806505887811	857.1179133810296	0.0
246	8.212557427258805	496.765257051724	851.8744938826546	0.0	508.858313256349	848.2129879524406	0.0	519.0126856359042	895.5045388094778	0.0	515.8685266340289	942.7469090535275	0.0	520.0705631045254	958.9323345911872	0.0	523.0651774979024	959.0362535923347	0.0	512.6344122034583	950.9639093646066	0.0	485.75390147250954	851.2234134227404	0.0	488.0988283968236	904.112124955433	0.0	490.32199949792096	949.5776735956201	0.0	484.758310990741	954.0100459248865	0.0	480.66224697103223	957.0372426856211	0.0	491.38558411358036	958.3716876877401	0.0	490.33479390656737	785.2309691237747	0.0	488.4026009960612	758.5163294082241	0.0	488.67201763492557	771.3893816813794	0.0	509.0470253635672	790.5115839376318	0.0	528.464566022149	818.9193041823411	0.0	537.1297331718241	846.5017525431554	0.0	473.11377304459825	795.7509068265156	0.0	460.69034146129013	828.9005670108402	0.0	462.0481816278786	856.3004529936616	0.0
247	8.24594180704441	496.7260394788601	851.8229930660548	0.0	508.83680815895565	848.2851025267918	0.0	518.4690398137433	894.9472819604301	0.0	515.5303183300118	942.3120249047446	0.0	520.1390972590814	957.8590761024452	0.0	522.6374313698683	958.4300165182156	0.0	512.400656555215	950.5663668419279	0.0	485.7435550387968	851.0524906394397	0.0	487.9632601313446	904.0650334105343	0.0	490.2750132417963	949.512228702726	0.0	484.67218684577364	954.1549020507528	0.0	480.62983596146546	957.3248040009834	0.0	491.30482685986215	958.3638811445583	0.0	489.8452229797851	785.0187706369873	0.0	487.87210209856534	758.1715944153598	0.0	488.15366708626283	770.9580912645407	0.0	508.34887346479036	790.1710777266538	0.0	527.101795775197	818.5945070510618	0.0	535.8597363446083	846.4230592601454	0.0	472.74913937752825	795.5005125268641	0.0	460.64575931931506	828.5309563977388	0.0	462.64696847129204	855.2511877226984	0.0
248	8.279326186830016	496.7218545187087	851.9459665620514	0.0	508.6913842852069	848.5235218601113	0.0	517.7687299324306	894.5978555224846	0.0	515.3786987557181	941.6381802392274	0.0	520.0866201013798	956.6669568867787	0.0	522.0601938027004	957.4586295870943	0.0	512.2847791170684	949.925815600558	0.0	485.51730839332504	850.9783495096156	0.0	487.84581901865755	904.1189593137847	0.0	490.2069620935991	949.4755898691067	0.0	484.59625792268184	954.3029506753884	0.0	480.70628963911525	957.4998579993442	0.0	491.16813286346274	958.2099343589559	0.0	489.3824424503817	784.9472569075381	0.0	487.4178958735431	758.0148143978801	0.0	487.6663637858884	770.6455063584492	0.0	507.6921417787672	789.7732252622432	0.0	526.1284922376415	818.4186397311081	0.0	534.8204132827827	846.2569261022078	0.0	472.4172514220705	795.3397724129073	0.0	460.6350634362939	828.1029106646012	0.0	463.31584191801215	854.0706920873862	0.0
249	8.31271056661562	496.56518893988505	852.0722790269919	0.0	508.31052622340667	848.5323550705413	0.0	517.0861652539726	894.4056279513637	0.0	515.2853812731495	941.1520428424491	0.0	519.7526844803588	954.9513264901204	0.0	521.4408414804006	955.4011036286176	0.0	512.1754434203748	949.4186754052096	0.0	485.1620009289637	851.0146578073186	0.0	487.7702054359773	904.0270654640025	0.0	490.1676435613503	949.5065753869131	0.0	484.6130109133076	954.4018156946058	0.0	480.89393526926864	957.5446532675765	0.0	490.9688472829991	957.9226561881404	0.0	489.03967161070875	784.9446141203936	0.0	487.21396193848614	757.8912182006616	0.0	487.5115185682027	770.6500592051021	0.0	507.16154753828215	789.526019969363	0.0	525.4851973654736	818.3561106476945	0.0	534.2420226069014	846.0627903969021	0.0	472.14331577157867	795.028871985624	0.0	460.6903895594465	827.7678371067274	0.0	464.1769690490345	853.0442481697323	0.0
